<?xml version="1.0" standalone="no"?><!DOCTYPE svg PUBLIC "-//W3C//DTD SVG 1.1//EN" "http://www.w3.org/Graphics/SVG/1.1/DTD/svg11.dtd"><svg t="1702279573274" class="icon" viewBox="0 0 1024 1024" version="1.1" xmlns="http://www.w3.org/2000/svg" p-id="4905" xmlns:xlink="http://www.w3.org/1999/xlink" width="300" height="300"><path d="M428.823105 7.393502c-14.787004 7.578339-28.280144 18.298917-41.773286 33.08592-4.620939 5.175451-9.981227 9.79639-11.829602 10.350903-2.402888 0.73935-7.208664-1.663538-14.787004-7.208664-6.099639-4.620939-16.080866-11.090253-21.81083-14.417329l-10.53574-6.099639h-64.693141l-10.166065 5.545126c-5.545126 2.957401-18.85343 14.047653-29.574007 24.398556-14.787004 14.232491-20.886643 21.625993-25.877257 31.422383l-6.469314 12.568953-0.369675 28.280145c-0.369675 27.910469-1.4787 33.640433-6.838989 33.640433-2.402888 0-18.114079 15.896029-26.431769 26.801444-6.099639 7.948014-9.05704 13.308303-30.313357 53.787725-7.393502 14.047653-16.265704 30.683032-19.59278 36.782672-3.511913 6.099639-12.938628 24.398556-21.256318 40.66426C46.024549 396.291697 34.379783 425.126354 24.953069 469.487365c-2.587726 12.753791-5.729964 25.692419-6.654152 28.834657-0.924188 3.142238-1.663538 19.038267-1.663538 35.303971 0 31.237545 0 31.60722 10.720578 54.157401 3.881588 8.502527 22.919856 28.464982 122.547292 128.462093 127.168231 127.722744 133.822383 134.931408 151.936462 164.690253 20.33213 33.640433 25.137906 56.190614 21.995668 100.18195-1.293863 15.896029-2.218051 32.161733-2.21805 35.858483 0 6.838989 0.184838 7.023827 6.284476 7.023827 4.436101 0 6.654152-0.924188 7.393502-3.327076 0.369675-1.663538 1.848375-19.407942 2.957401-39.370397 2.957401-49.166787 0.369675-64.323466-16.450542-95.376173-6.284477-11.644765-6.099639-14.417329 0.554513-8.132852 5.729964 5.360289 38.446209 15.711191 49.166787 15.526354 34.564621-0.924188 91.309747-4.620939 107.760289-7.023827 56.005776-8.132852 101.290975-27.171119 127.907581-53.602888 9.426715-9.426715 14.047653-15.711191 16.635379-22.735018 2.033213-5.175451 4.066426-9.611552 4.620938-9.611553 0.73935 0 3.696751 5.545126 7.023827 12.384116 3.142238 7.023827 6.838989 14.047653 8.132852 15.896029 2.218051 2.957401 1.293863 4.436101-6.654151 11.644765-9.611552 8.687365-37.706859 23.289531-58.03899 30.12852-20.886643 7.023827-61.920578 16.635379-91.124909 21.441155-45.100361 7.393502-43.436823 6.838989-28.464982 8.502527 7.208664 0.924188 25.507581 4.436101 40.66426 7.948015l27.725631 6.284476 27.540795-5.360289c24.768231-4.620939 29.758845-5.175451 51.569675-4.066426 25.692419 1.293863 30.12852-0.73935 11.644765-4.805776-5.729964-1.293863-10.720578-2.957401-11.27509-3.881588-0.554513-0.924188 2.218051-8.31769 6.284476-16.265704 5.729964-11.27509 9.05704-15.711191 14.417329-19.038267 3.881588-2.218051 11.27509-7.578339 16.265704-11.829603l9.241877-7.763177 9.241877 7.948014c9.79639 8.687365 16.450542 11.644765 37.891697 16.265704 15.526354 3.511913 31.60722 10.166065 45.654874 19.038268 11.090253 6.838989 14.787004 4.990614 6.838989-3.511914-7.578339-7.763177-18.114079-13.493141-34.010108-18.298917-21.995668-6.469314-32.901083-14.417329-50.645488-36.782671-11.090253-14.047653-18.85343-26.062094-26.986281-41.773285l-5.729964-11.459928 2.772563-13.308304c1.4787-7.208664 2.957401-13.677978 3.511913-14.047653 0.369675-0.369675 8.687365 6.838989 18.668592 16.265704 9.981227 9.241877 20.33213 18.668592 22.919856 20.701805l4.990614 3.881589-2.772564-3.881589c-1.4787-2.218051-11.644765-14.232491-22.55018-26.801444-17.005054-19.59278-19.962455-23.844043-19.962455-29.204332 0-9.241877-1.663538-5.914801-4.990614 9.426715-5.914801 28.464982-18.85343 60.99639-32.161733 80.404332-10.350903 14.971841-23.289531 26.062094-39.924909 34.010108-17.189892 8.502527-20.147292 8.132852-17.189892-2.033213 2.033213-6.838989 7.393502-38.631047 7.393502-43.436823 0-1.4787-0.73935-2.772563-1.478701-2.772563s-3.511913 8.502527-5.729963 18.853429c-5.729964 25.507581-5.729964 25.322744-15.711192 24.213719-7.208664-0.924188-10.166065 0-23.659206 7.393502-13.493141 7.393502-16.450542 8.31769-23.28953 7.393501-4.251264-0.554513-7.763177-2.033213-7.763177-3.142238 0-5.914801 16.450542-24.953069 21.81083-25.137906 1.109025 0 2.218051-1.293863 2.218051-2.957401 0-2.218051-0.73935-2.587726-2.218051-1.293862-1.293863 0.924188-7.208664 3.696751-13.123466 6.099639-7.578339 2.957401-12.568953 6.469314-17.374729 12.199277-5.175451 6.469314-7.763177 8.132852-12.384115 8.132852-3.696751 0-6.469314-1.293863-7.948015-3.511913-2.218051-3.511913-2.587726-3.511913-13.493141 0.924188-6.099639 2.402888-11.829603 4.436101-12.75379 4.436101-1.109025 0-2.033213-4.805776-2.402888-10.720578l-0.554513-10.53574-5.914801 11.27509c-5.360289 10.350903-6.838989 11.644765-18.85343 17.559567-7.208664 3.511913-13.123466 6.838989-13.123466 7.57834 0 0.554513 4.805776 1.4787 10.53574 1.848375 7.393502 0.369675 16.820217-1.109025 30.12852-4.436101 18.668592-4.805776 33.270758-5.360289 33.270758-1.293863 0 0.924188-2.218051 4.251264-5.175451 7.208664-4.805776 5.545126-6.099639 5.914801-27.171119 8.31769-12.199278 1.4787-29.758845 3.511913-39.000722 4.805776-16.265704 2.033213-17.559567 1.848375-34.194946-2.957401-23.289531-6.838989-37.152347-14.047653-43.62166-22.55018-20.516968-27.725632-42.88231-51.569675-128.092419-136.410108-53.048375-52.863538-104.987726-105.357401-115.153791-116.447654C36.043321 578.541516 31.422383 567.451264 31.422383 529.559567c0-39.000722 7.393502-74.304693 25.322743-119.220217 14.787004-37.522022 97.409386-199.994224 112.011553-220.511191 8.872202-12.384116 15.526354-18.668592 29.204332-28.280145 5.729964-3.881588 8.872202-7.763177 10.350902-12.384115 1.109025-3.696751 1.4787-7.208664 0.554513-7.763177-0.73935-0.369675-2.033213-7.578339-2.587726-15.711191-2.587726-28.280144 4.620939-46.394224 27.171119-68.759567C256.369675 34.194946 265.981227 29.574007 289.270758 29.574007c26.431769 0 39.370397 5.545126 65.432491 27.540794 8.502527 7.208664 16.265704 13.123466 17.374729 13.123466 1.109025 0 6.284477-4.805776 11.459928-10.53574C411.448375 27.910469 425.496029 16.635379 444.164621 10.720578c19.962455-6.099639 44.361011-2.957401 70.423105 9.426714 26.801444 12.568953 49.351625 33.640433 69.129242 64.508304 7.578339 11.829603 18.85343 36.782671 18.853429 41.773285 0 4.990614 5.729964 6.284477 26.062094 5.175451 46.024549-2.033213 86.503971 11.829603 116.077978 40.109747l11.829603 11.275091-2.402888 7.393501c-1.4787 4.805776-3.327076 7.208664-4.805776 6.654152-3.142238-1.109025-3.511913 0.369675-9.05704 32.161733-6.654152 38.631047-13.493141 60.626715-23.104693 73.380505-7.393502 9.611552-8.502527 12.938628-15.896029 43.806499-12.938628 53.787726-20.886643 85.579783-26.801444 108.684476l-5.729964 21.625993-10.720577 9.05704c-10.720578 9.05704-10.720578 9.05704-20.701805 7.578339-5.360289-0.73935-21.625993-2.772563-36.228159-4.620939l-26.431769-3.327075-9.241877-11.090253-9.241878-11.27509 1.109026-12.938629c0.924188-10.720578 2.957401-16.820217 11.829602-35.119133l10.720578-22.180506 2.402888-28.834657c2.033213-25.877256 2.033213-30.12852-0.73935-41.588447-4.805776-19.407942-4.805776-19.223105-9.241877-19.223105-4.805776 0-8.502527-3.142238-8.502527-7.208664 0-4.436101-8.687365-22.180505-13.862816-28.280145-4.066426-4.620939-4.620939-6.838989-3.696751-14.232491 4.990614-45.654874 7.208664-59.887365 11.27509-71.162455 7.948014-22.919856 19.038267-38.261372 33.640433-46.763898 4.620939-2.772563 7.393502-5.360289 6.099639-5.729964-1.109025-0.369675-3.327076 0.184838-4.805776 1.4787-2.957401 2.402888-6.469314 1.109025-6.469314-2.402888 0-4.805776-3.881588-16.080866-5.545126-16.080866-1.109025 0-1.848375 2.957401-1.848376 6.654151 0 10.905415-3.881588 21.441155-10.350902 28.464982-8.687365 9.426715-19.962455 33.640433-24.768231 53.233213-4.066426 16.820217-13.862816 41.958123-18.483755 47.318412-1.4787 2.033213-3.142238 2.402888-5.360289 1.293862-1.663538-0.924188-17.189892-4.251264-34.749458-7.393501-39.18556-7.023827-43.067148-8.31769-76.153069-24.768231-32.34657-16.265704-35.303971-18.668592-35.303971-29.38917 0-4.436101-1.293863-18.668592-2.772563-31.792058-2.033213-18.483755-2.218051-29.574007-0.73935-48.797112 0.924188-13.677978 2.218051-26.801444 2.772563-29.204332 0.73935-2.587726 0.369675-4.436101-0.924188-4.436101-2.218051 0-4.066426 6.284477-11.27509 40.479422-4.251264 19.777617-5.729964 31.60722-5.914801 48.427437-0.184838 12.199278-0.73935 22.550181-1.478701 22.919856-0.554513 0.369675-7.208664-3.142238-14.787003-7.763177s-17.929242-10.905415-22.919856-13.862816c-5.175451-2.957401-14.417329-9.241877-20.701805-13.677978-17.929242-12.753791-31.976895-17.929242-49.7213-18.11408-10.720578 0-16.265704 0.73935-20.33213 3.142239l-5.545126 3.142238 5.545126-1.293863c3.142238-0.924188 12.199278-1.4787 20.33213-1.4787 18.668592 0.184838 27.540794 3.881588 60.99639 26.616606 70.238267 47.688087 130.310469 77.077256 170.050542 83.361733 29.574007 4.805776 56.375451 12.938628 56.375451 17.374729 0 1.293863-3.142238 5.360289-7.208664 9.241878-8.502527 8.31769-21.81083 35.303971-23.289531 47.318411-0.924188 7.393502-0.73935 7.763177 1.109025 3.696751 14.971841-31.237545 19.59278-39.740072 26.062094-47.133574 9.426715-10.720578 13.308303-10.53574 21.441155 1.663538 8.872202 13.308303 12.01444 26.246931 10.53574 42.327798-2.033213 19.777617-5.729964 32.161733-13.862815 45.839711-11.090253 18.668592-18.85343 25.322744-45.470037 38.631047l-23.844043 12.01444-21.256318 1.109026c-11.644765 0.554513-34.194946 2.587726-50.090974 4.436101-25.877256 3.142238-30.86787 3.142238-47.133574 1.109025-10.166065-1.4787-22.180505-4.066426-27.171119-5.729964-13.677978-5.175451-50.46065-25.692419-66.726354-37.337184-14.787004-10.53574-14.971841-10.720578-33.825271-43.067148-18.85343-32.34657-21.256318-38.076534-23.659206-58.778339-0.554513-5.729964-2.033213-10.53574-2.9574-10.535741s-1.663538 1.109025-1.663538 2.218051c0 1.293863-1.293863 10.905415-2.587726 21.441155l-2.587726 19.038267 6.83899 11.459928c3.881588 6.284477 11.459928 19.59278 16.820216 29.574007 9.426715 17.559567 10.166065 18.483755 26.062094 29.204333 11.27509 7.578339 16.820217 12.384116 17.559567 15.711191 0.73935 2.587726 0.73935 4.990614 0.184837 5.729964-0.554513 0.554513-8.502527-2.033213-17.559566-5.914802-16.080866-6.654152-17.559567-7.763177-40.66426-31.052707-23.659206-24.213718-23.844043-24.398556-26.986282-37.337184-1.848375-7.208664-4.436101-14.971841-5.914801-17.559567-2.402888-4.436101-2.587726-4.436101-1.663538 2.772563 3.696751 30.12852 4.990614 37.152347 7.023826 39.000722 47.872924 43.621661 51.93935 46.209386 77.077257 51.384838 9.981227 2.218051 10.166065 2.218051 11.644765 10.166065 0.924188 4.251264 1.293863 8.132852 0.924188 8.502527-0.369675 0.369675-11.459928-0.184838-24.583394-1.109026-13.308303-1.109025-26.986282-1.4787-30.683032-0.924187-3.511913 0.554513-13.493141-0.184838-22.180506-1.663538-8.502527-1.4787-17.189892-2.772563-19.223104-2.587726-5.914801 0.369675 20.147292 8.31769 44.361011 13.493141 43.436823 9.611552 47.503249 11.644765 41.218772 20.147292-3.142238 4.066426-43.251986 17.559567-59.517689 19.777618-17.929242 2.587726-44.176173 2.587726-58.963177 0-8.872202-1.663538-13.862816-1.663538-17.559567-0.369675-2.772563 1.109025-12.199278 4.066426-21.07148 6.838989-10.166065 2.957401-16.820217 5.914801-17.929242 8.132852-1.848375 3.142238-1.4787 3.142238 10.53574 0 6.654152-2.033213 15.156679-3.511913 18.668592-3.511914h6.284477l-7.57834 6.838989c-9.241877 8.502527-29.943682 32.161733-29.943682 34.194946 0 0.924188 10.720578-5.729964 23.844043-14.417328l23.844043-15.896029 15.526354 1.293863c8.687365 0.73935 18.85343 0.369675 23.659206-0.73935 8.31769-1.848375 12.938628-0.369675 12.938628 4.251263 0 1.109025-6.099639 8.502527-13.493141 16.265704-11.090253 12.01444-17.005054 16.450542-35.488808 26.616607l-22.180506 12.384115-12.938628-2.033213-12.938628-2.033213-5.175451 5.914802c-10.53574 12.384116-11.090253 12.01444 14.047653 11.090252 18.85343-0.73935 24.028881-1.663538 31.60722-5.360289 4.990614-2.402888 9.426715-4.066426 9.981228-3.69675 1.848375 2.033213-10.720578 14.787004-21.625993 21.995667-7.578339 5.175451-12.938628 10.166065-15.341516 14.787004-5.175451 10.166065-2.957401 10.350903 4.066426 0.554513 4.620939-6.284477 9.241877-9.79639 18.668592-14.232491 11.459928-5.360289 14.417329-8.132852 27.910469-24.583394 8.31769-10.350903 24.398556-27.910469 35.673646-39.185559 21.256318-21.256318 21.625993-21.625993 58.963177-38.44621l17.559567-7.763177 12.568953 1.848376c17.189892 2.772563 17.374729 2.957401 14.417329 13.862816-1.293863 4.990614-2.957401 9.981227-3.511914 10.905415-0.554513 1.109025-7.948014 5.360289-16.450541 9.79639-8.31769 4.251264-18.298917 9.79639-22.180506 12.199278-4.066426 2.587726-7.578339 4.066426-8.132852 3.696751-0.369675-0.554513 1.848375-3.881588 5.175452-7.57834 3.142238-3.696751 5.545126-7.023827 5.175451-7.578339-0.369675-0.369675-11.090253 8.132852-23.844043 18.668592-13.493141 11.459928-29.019495 22.550181-37.522022 26.986282-7.948014 4.066426-14.047653 7.763177-13.677978 8.317689 0.554513 0.369675 5.914801-0.924188 12.199278-3.142238 6.099639-2.033213 11.644765-3.696751 12.199278-3.696751 0.554513 0-3.142238 4.990614-8.31769 11.27509-4.990614 6.099639-9.241877 11.644765-9.241877 12.199278 0 0.73935 7.208664-5.914801 16.265704-14.417328 22.365343-21.995668 33.825271-30.12852 57.114801-40.294585 21.441155-9.611552 29.019495-13.493141 55.266426-29.019495 11.459928-6.838989 18.668592-9.981227 23.104693-9.981227 11.644765 0 11.644765 0.554513 9.241878 25.877256-0.184838 0.554513-6.469314 6.284477-14.047654 12.753791-7.578339 6.654152-13.493141 12.199278-13.123466 12.568953 0.369675 0.369675 3.881588-1.109025 7.763177-3.327076 27.910469-15.711191 30.12852-16.635379 50.645488-20.147292 11.27509-2.033213 22.180505-4.066426 24.213718-4.620939 2.033213-0.73935 13.123466 2.957401 28.834657 9.79639 14.047653 6.099639 39.18556 16.080866 56.005776 22.180505 39.92491 14.602166 45.285199 16.820217 69.31408 28.095307 26.801444 12.568953 33.640433 15.526354 42.88231 18.483755 7.208664 2.218051 7.948014 2.957401 9.79639 11.829602 1.293863 5.175451 3.696751 20.701805 5.545126 34.379784l3.511914 24.953068-0.73935-19.223104c-0.369675-10.53574-1.848375-25.692419-2.957401-33.640433-3.881588-25.137906 1.109025-21.995668 14.971841 9.426714 11.090253 24.953069 29.943682 60.99639 43.251986 83.176896 13.493141 21.995668 14.787004 24.028881 16.265704 24.028881 0.73935 0-10.53574-23.474368-25.137907-52.124188-36.043321-71.716968-42.14296-85.764621-41.40361-95.930686l0.554513-8.132852 12.568953-3.511913c11.090253-3.327076 13.493141-3.327076 21.256318-1.293863 16.635379 4.805776 17.189892 4.805776 33.270758-5.175452 8.31769-5.175451 15.526354-9.426715 16.265704-9.426714 0.554513 0 10.350903 8.502527 21.441155 18.853429 20.886643 19.407942 21.625993 20.33213 70.607942 91.679423 7.948014 11.459928 14.787004 20.516968 15.341517 19.962455 0.554513-0.369675-11.090253-21.256318-25.692419-46.394224-20.886643-36.228159-30.313357-50.275812-45.285199-68.389892-10.53574-12.568953-19.038267-23.659206-19.038267-24.768231 0-1.293863 5.175451-2.033213 14.417329-2.033213 7.948014 0 25.692419-0.924188 39.370397-2.033213 28.649819-2.218051 23.104693 0.73935 61.73574-34.010108 22.919856-20.701805 26.431769-24.583394 31.60722-35.858484 5.175451-11.090253 7.023827-13.308303 16.080866-18.483755 8.502527-4.805776 13.493141-6.284477 27.540795-7.578339 29.019495-2.957401 55.451264-7.208664 56.929964-9.05704 0.554513-0.73935 3.511913-2.772563 6.469314-4.805776l5.545126-3.696751-40.294585-0.924187c-39.92491-0.924188-40.479422-0.924188-43.991336-5.360289-2.033213-2.402888-3.327076-5.360289-2.9574-6.469314 0.369675-1.109025 5.914801-3.881588 12.568953-6.099639 19.59278-7.023827 37.706859-16.450542 45.654873-23.474369 3.881588-3.696751 7.948014-6.654152 8.872203-6.654151 1.848375 0.184838 29.574007 46.394224 33.640433 56.190614 4.620939 10.53574 2.033213 20.701805-10.166065 40.849097-6.099639 10.166065-11.829603 20.516968-12.568953 23.104693-0.73935 2.587726-4.805776 9.79639-8.872202 16.080867-7.023827 11.090253-7.763177 11.644765-14.602166 11.644765-4.066426 0-7.023827 0.554513-6.654152 1.293863 4.066426 9.426715 17.005054 29.943682 18.298917 29.204332 0.924188-0.554513 1.109025-4.620939 0.554512-9.05704-1.293863-8.687365 5.175451-32.531408 8.687365-32.531408 1.109025 0 1.4787 1.4787 0.924188 3.142238-1.109025 4.066426-7.208664 52.309025-11.27509 88.537185-3.511913 31.052708-7.948014 47.872924-22.180506 83.916245-21.07148 53.418051-38.076534 107.390614-53.41805 170.050542-9.05704 36.228159-14.971841 51.015162-32.161733 79.295306-5.360289 8.502527-9.981227 18.114079-10.53574 21.256318-0.554513 3.142238-1.663538 20.886643-2.402888 39.555235l-1.293863 33.640433h15.711191l0.184838-12.568953c0-6.838989 1.109025-24.028881 2.402888-38.261372 2.033213-23.289531 2.772563-26.986282 8.132852-36.967509 21.07148-39.18556 25.877256-51.384838 35.488808-89.646209 8.687365-35.303971 27.725632-97.963899 38.076535-125.689531 21.07148-56.745126 31.792058-86.873646 32.901083-91.679422 0.73935-2.957401 2.772563-20.147292 4.805776-37.891697 2.033213-17.559567 4.805776-40.479422 6.284476-50.645488 1.4787-10.166065 3.696751-25.877256 4.805777-34.934296 2.772563-20.33213 4.990614-26.986282 16.635379-47.318411 8.132852-14.232491 9.241877-17.374729 9.241877-26.616607 0-12.01444-2.033213-16.820217-19.407942-44.545848-16.450542-26.431769-16.820217-27.171119-19.223105-52.6787-6.654152-68.205054-19.407942-98.148736-56.005776-131.974008-19.407942-18.114079-38.261372-29.943682-57.854152-36.228158-14.971841-4.805776-19.038267-5.175451-37.891697-4.805777-15.896029 0.184838-25.137906 1.4787-36.412996 4.805777l-14.971841 4.251263-11.459928-10.350902c-12.01444-10.720578-33.455596-23.104693-51.2-29.204333-17.559567-5.914801-48.797112-10.166065-82.252707-10.905415-0.554513 0-5.729964-9.426715-11.275091-20.886642-21.995668-45.470036-56.560289-79.110469-96.300361-93.527798-15.341516-5.545126-17.374729-5.729964-43.251985-5.729964l-27.171119 0.184838L428.823105 7.393502z m407.936462 165.984115c23.659206 6.284477 43.991336 19.038267 67.650541 42.327798 31.976895 31.60722 41.033935 54.157401 48.427437 121.623105l2.587726 24.028881-7.763177 7.208664c-4.251264 3.881588-12.568953 9.426715-18.483755 12.568953-12.568953 6.284477-43.436823 16.635379-45.654873 15.341516-0.73935-0.554513 1.663538-10.166065 5.360289-21.625992l6.654151-20.516968 13.862816-11.090253c9.426715-7.578339 16.080866-14.602166 20.701805-22.365343 3.881588-6.099639 6.838989-12.01444 7.023827-13.123465 0-0.924188-6.838989 4.990614-15.341516 13.49314-8.31769 8.31769-15.896029 15.156679-16.63538 15.156679-3.142238 0-1.663538-2.957401 15.896029-33.270758 4.990614-8.687365 10.905415-31.792058 8.687365-34.010108-2.587726-2.587726-3.142238-1.4787-8.31769 16.265704-5.914801 20.33213-9.426715 28.280144-22.55018 49.721299-15.341516 25.137906-19.777617 35.488809-30.86787 73.565343-3.881588 13.123466-17.744404 37.706859-26.062094 45.839711l-6.099639 6.284477-2.033213-7.393502c-1.663538-5.914801-1.4787-9.981227 0.924188-19.038267 1.4787-6.284477 2.402888-11.829603 2.033213-12.384115-0.554513-0.554513-5.729964 5.360289-11.27509 12.938628-9.05704 12.199278-11.459928 14.417329-20.516968 17.744404-13.123466 4.990614-13.493141 4.990614-33.455596-1.293863-13.493141-4.251264-19.777617-7.578339-31.60722-16.635379-13.493141-10.166065-15.341516-12.384116-19.59278-23.289531-2.772563-6.469314-5.729964-17.189892-7.023826-23.659205-2.772563-14.971841 0.554513-33.085921 11.27509-60.25704 8.687365-22.735018 13.493141-40.294585 25.877256-97.963899 4.990614-23.844043 9.79639-43.991336 10.350903-45.100361 0.554513-0.924188 4.990614-3.511913 9.79639-5.545126 21.256318-9.05704 44.730686-11.090253 66.171841-5.545127zM613.66065 870.215162c0 1.293863-17.005054 17.005054-27.355957 25.137907-3.327076 2.587726-11.459928 4.436101-30.498195 6.838989-24.953069 3.327076-27.171119 3.327076-43.251985 0.369675-9.426715-1.663538-17.189892-3.696751-17.189892-4.436101 0-0.554513 5.175451-1.663538 11.644765-2.402888 33.085921-3.511913 85.764621-16.450542 99.257762-24.213719 5.175451-2.957401 7.393502-3.327076 7.393502-1.293863z" p-id="4906" fill="#0098EA"></path><path d="M388.52852 247.127798c-15.341516 15.156679-18.483755 28.464982-12.014441 48.797112 5.175451 15.896029 15.896029 25.322744 37.522022 32.531408 25.322744 8.502527 54.711913 14.971841 52.6787 11.644765-0.554513-1.109025-2.218051-1.848375-3.327075-1.848375-4.805776 0-65.247653-19.407942-69.129242-21.995668-2.218051-1.663538-6.654152-7.393502-9.981228-12.938628-11.27509-18.483755-7.208664-41.033935 10.53574-58.03899 4.990614-4.805776 7.948014-8.687365 6.83899-8.687364-1.293863 0-7.208664 4.805776-13.123466 10.53574zM122.362455 641.940794c-6.654152 6.838989-8.502527 13.493141-2.033213 7.57834 3.511913-3.142238 9.981227-13.677978 8.502527-13.677979-0.369675 0-3.142238 2.772563-6.469314 6.099639zM233.264982 658.206498c-2.957401 6.469314-7.578339 16.635379-10.350903 22.365343-6.838989 14.971841-5.914801 17.374729 1.663538 4.251264 7.393502-12.938628 16.635379-35.673646 14.971841-37.337184-0.554513-0.554513-3.511913 4.251264-6.284476 10.720577zM147.315523 663.751625c-1.848375 4.251264-2.957401 8.132852-2.402888 8.687364 1.293863 1.109025 7.023827-12.384116 6.284477-14.602166-0.369675-0.924188-2.033213 1.663538-3.881589 5.914802zM526.047653 719.202888c-0.369675 1.4787-2.033213 8.31769-3.69675 15.526354-7.393502 34.010108-12.753791 58.223827-15.156679 67.465704-3.327076 12.938628-3.142238 19.962455 0.184837 10.166065 9.426715-26.801444 23.474368-91.86426 20.516968-94.636823-0.554513-0.554513-1.4787 0-1.848376 1.4787zM227.535018 735.283755c-6.838989 11.27509-10.350903 20.701805-5.914801 15.896028 2.772563-2.957401 15.156679-26.986282 14.417328-27.725631-0.369675-0.554513-4.251264 4.805776-8.502527 11.829603zM298.512635 762.085199c-15.896029 34.379783-19.777617 43.991336-18.853429 45.100361 0.73935 0.554513 1.663538 0.73935 2.21805 0.184837 1.848375-1.848375 19.59278-46.394224 19.038267-47.872924-0.369675-0.924188-1.4787 0.369675-2.402888 2.587726zM494.440433 766.336462c-0.924188 0.369675-10.905415 2.772563-22.180505 5.360289l-20.33213 4.620939-16.080867 17.005054c-8.872202 9.426715-16.080866 17.929242-16.265704 18.668592 0 0.924188 8.872202-3.142238 19.962455-8.872202 25.877256-13.677978 61.366065-34.749458 61.366065-36.597834 0-1.293863-3.327076-1.4787-6.469314-0.184838zM267.644765 781.862816c-5.545126 7.578339-6.099639 9.241877-3.511913 9.241877 1.663538 0 10.166065-14.787004 9.05704-15.711191-0.369675-0.369675-2.772563 2.587726-5.545127 6.469314zM879.272202 779.644765c-0.554513 0.73935-2.957401 7.393502-5.175451 14.417329-2.218051 7.023827-5.175451 13.677978-6.654152 14.787003-4.251264 3.696751-14.417329 0.924188-29.943682-7.763176-8.31769-4.805776-15.526354-8.132852-15.896029-7.763177-0.554513 0.554513 5.360289 6.469314 12.938628 13.308303l13.677979 12.384115 15.341516-0.554512 15.341516-0.554513 1.109025-19.407942c1.293863-19.223105 1.109025-22.180505-0.73935-18.85343zM311.451264 809.773285c-10.905415 8.31769-11.090253 8.502527-4.990614 11.644766 4.251264 2.218051 5.914801 2.402888 7.393502 0.554512 1.663538-2.033213 7.763177-15.526354 7.763177-17.189892 0-1.848375-3.327076-0.184838-10.166065 4.990614zM375.774729 813.839711c-9.426715 9.611552-9.611552 9.79639-21.81083 10.166065-14.047653 0.554513-21.256318 2.772563-21.256318 6.838989 0 2.218051 2.402888 2.772563 11.090253 2.772564 6.099639 0 11.090253 0.369675 11.090253 0.73935s-1.293863 3.696751-2.772564 7.208664c-4.251264 10.166065-3.511913 10.166065 6.654152 0.369675 8.687365-8.502527 29.38917-34.379783 29.38917-36.782671 0-2.772563-3.511913-0.184838-12.384116 8.687364zM788.516968 828.441877c-2.218051 9.981227-4.805776 31.60722-4.066426 32.531408 0.554513 0.554513 5.545126-2.218051 11.27509-6.099639l10.166065-7.208664 17.744404 5.175451c9.79639 2.772563 18.114079 4.620939 18.668592 4.251264 0.73935-0.924188-45.285199-30.12852-50.275812-31.976896-1.663538-0.73935-2.957401 0.369675-3.511913 3.327076zM375.589892 843.413718c-7.208664 7.393502-13.308303 14.047653-13.308304 14.602166 0 1.109025 30.86787-10.720578 33.270759-12.75379 0.554513-0.554513-1.109025-2.402888-3.696751-4.251264-3.696751-2.772563-4.251264-3.881588-2.218051-5.729964 2.587726-2.772563 2.957401-5.360289 0.73935-5.360288-0.73935 0-7.393502 6.099639-14.787003 13.49314zM759.68231 894.059206c-26.062094 2.402888-27.540794 4.620939-4.805776 6.838989 9.79639 0.924188 15.341516 2.772563 23.659206 7.578339 6.099639 3.511913 11.459928 6.469314 12.199278 6.469314 0.73935 0 9.241877-2.957401 18.85343-6.654151 9.611552-3.696751 21.81083-7.208664 26.801444-7.948015l9.241877-1.293863-5.729964-2.9574c-5.545126-2.957401-6.284477-2.957401-25.322744 3.696751l-19.592779 6.838989-12.938629-7.023827c-7.023827-3.696751-13.677978-6.654152-14.417328-6.469314-0.73935 0-4.436101 0.554513-7.948015 0.924188zM344.352347 908.661372c-0.554513 1.4787-0.369675 3.511913 0.554512 4.251263 0.924188 0.73935 12.938628 4.436101 26.616607 8.132852 18.483755 4.990614 29.574007 6.838989 43.067148 7.393502 21.07148 0.73935 19.59278-1.109025-4.805776-6.284476-32.901083-6.838989-48.797112-10.720578-55.820939-13.493141-8.502527-3.696751-8.132852-3.696751-9.611552 0zM625.67509 921.6c-28.095307 1.109025-59.887365 4.436101-83.176895 8.502527-22.365343 3.881588-43.991336 3.881588-85.025271 0.369675-28.834657-2.587726 0.554513 4.436101 39.740072 9.611553 26.616606 3.327076 43.806498 2.772563 68.020217-2.587726 27.725632-6.099639 56.190614-8.31769 96.115523-7.208664 31.422383 0.73935 39.000722 1.4787 55.820939 5.729964 26.986282 7.023827 93.897473 11.090253 104.433213 6.654151 2.033213-0.924188 2.957401-1.663538 1.848376-1.663538-0.924188-0.184838-12.568953-1.4787-25.877257-2.9574-21.995668-2.587726-34.379783-4.805776-70.238267-12.753791-13.308303-2.957401-69.314079-4.990614-101.66065-3.696751zM448.78556 955.055596c1.293863 0.554513 2.957401 0.369675 3.511913-0.184838 0.73935-0.554513-0.369675-1.109025-2.402888-0.924188-2.033213 0-2.587726 0.554513-1.109025 1.109026zM465.790614 958.382671c17.005054 4.251264 61.920578 12.199278 81.698195 14.417329l18.668592 2.218051-0.369675 24.583393c-0.554513 32.161733 2.772563 32.34657 4.436101 0.369675 0.73935-13.308303 2.218051-24.583394 3.142238-25.137906 4.251264-2.587726 48.797112 7.763177 82.80722 19.223105l15.711192 5.360288v12.384116c0 10.166065 0.554513 12.199278 2.9574 12.199278 3.881588 0 5.360289-3.696751 5.360289-13.123466 0-8.31769 0.554513-8.502527 14.971841-4.251263 7.763177 2.402888 14.047653 2.772563 28.095307 1.848375s19.223105-0.554513 23.289531 1.478701c4.990614 2.772563 39.000722 6.469314 39.000722 4.251263 0-0.554513-5.545126-1.848375-12.384116-2.957401-23.104693-3.881588-23.104693-3.881588-20.701805-7.023826 2.033213-2.402888 1.4787-2.587726-4.251263-1.478701-3.511913 0.73935-15.156679 1.293863-25.692419 1.478701l-19.223105 0.369675-42.327798-14.417329c-47.318412-16.265704-51.754513-17.189892-90.755234-19.777617-15.156679-0.924188-45.100361-4.620939-66.171841-8.31769-39.18556-6.654152-57.299639-8.31769-38.261372-3.696751z" p-id="4907" fill="#0098EA"></path><path d="M617.357401 966.515523c10.905415 1.848375 38.076534 9.241877 61.920577 16.63538l42.512636 13.49314 19.962455-4.066426c35.673646-7.023827 35.858484-9.241877 0.554512-4.620938L720.866426 990.729242l-48.242599-13.862816c-41.218773-11.829603-50.090975-13.862816-61.366065-13.677978l-13.308304 0.184837 19.407943 3.142238zM412.187726 974.648375c0 0.554513 5.545126 2.772563 12.568953 5.175452 6.838989 2.218051 16.450542 6.838989 21.441155 10.166065 11.459928 7.578339 13.493141 6.654152 3.696751-1.848376-4.620939-4.066426-11.090253-7.393502-18.298917-9.241877-6.099639-1.663538-12.938628-3.511913-15.156679-4.066426-2.402888-0.73935-4.251264-0.73935-4.251263-0.184838zM763.009386 1001.264982c1.293863 0.554513 2.957401 0.369675 3.511914-0.184838 0.73935-0.554513-0.369675-1.109025-2.402888-0.924187-2.033213 0-2.587726 0.554513-1.109026 1.109025z" p-id="4908" fill="#0098EA"></path></svg>